<svg version="1.1" id="Layer_1" xmlns="http://www.w3.org/2000/svg" xmlns:xlink="http://www.w3.org/1999/xlink" x="0px" y="0px"
	 width="100%" viewBox="0 0 64 64" enable-background="new 0 0 64 64" xml:space="preserve">
<path fill="#3AD1EE" opacity="1.000000" stroke="none" 
	d="
M30.986271,11.166502 
	C35.621338,11.111620 40.256290,11.025548 44.891495,11.009265 
	C51.618324,10.985634 54.995911,14.382675 54.996864,21.111982 
	C54.997375,24.756750 54.985104,28.401520 54.563522,32.589874 
	C50.138474,34.704151 49.933701,38.041298 49.958931,41.675446 
	C50.005260,48.349911 48.616699,49.813545 41.980118,49.953213 
	C38.409988,50.028343 35.979538,51.300297 34.967808,54.835316 
	C29.698769,54.889507 24.429205,55.014912 19.160854,54.975903 
	C14.756598,54.943291 11.078222,51.196991 11.016512,46.765285 
	C10.956870,42.482128 11.015154,38.197327 11.433678,33.376396 
	C15.021411,31.515503 16.391605,29.185249 15.859184,25.356857 
	C16.726627,22.001312 17.527435,19.046436 18.756351,16.084187 
	C23.576914,15.542073 29.106939,17.741465 30.986271,11.166502 
M29.167114,28.688417 
	C28.640444,30.671450 28.113773,32.654480 27.587103,34.637512 
	C25.805506,31.758131 25.477713,28.818846 24.440550,26.155836 
	C23.866070,24.680809 22.105026,23.667913 20.878828,22.446711 
	C20.382341,24.006630 19.292006,25.652328 19.502573,27.110119 
	C20.094646,31.209173 20.938622,35.327293 22.268192,39.239082 
	C22.860865,40.982800 24.855814,42.249901 26.214323,43.733318 
	C27.733036,42.231773 29.612465,40.944633 30.668432,39.168041 
	C31.712416,37.411613 31.924658,35.160820 32.501755,33.126884 
	C34.178841,35.620312 34.407803,38.048374 35.470558,40.029053 
	C36.294315,41.564293 38.180683,43.519653 39.557152,43.490902 
	C40.947083,43.461864 43.015202,41.453381 43.516998,39.901646 
	C44.943180,35.491379 45.901028,30.900351 46.633511,26.315027 
	C46.824284,25.120777 45.517326,23.687271 44.898273,22.363653 
	C43.931717,23.297070 42.451576,24.068316 42.095940,25.194632 
	C41.072739,28.435106 40.503891,31.819048 39.756531,35.146622 
	C38.004997,31.737642 37.176777,28.217939 35.976398,24.830099 
	C35.609512,23.794630 34.241302,22.490093 33.293411,22.458563 
	C32.331894,22.426577 31.095104,23.653734 30.402107,24.629889 
	C29.767630,25.523615 29.698294,26.818552 29.167114,28.688417 
z"/>
<path fill="#2FB1CC" opacity="1.000000" stroke="none" 
	d="
M35.431358,54.904747 
	C35.979538,51.300297 38.409988,50.028343 41.980118,49.953213 
	C48.616699,49.813545 50.005260,48.349911 49.958931,41.675446 
	C49.933701,38.041298 50.138474,34.704151 54.491886,33.050575 
	C54.889725,37.409420 54.998901,41.851334 54.984135,46.292828 
	C54.967106,51.413197 51.399242,54.944977 46.266842,54.991539 
	C42.809868,55.022903 39.352245,54.982483 35.431358,54.904747 
z"/>
<path fill="#71DDF3" opacity="1.000000" stroke="none" 
	d="
M30.526363,11.091619 
	C29.106939,17.741465 23.576914,15.542073 18.690729,15.759678 
	C14.293256,13.563621 13.655857,17.080551 13.403133,19.088331 
	C13.120577,21.333120 10.571903,25.207806 15.792548,25.757524 
	C16.391605,29.185249 15.021411,31.515503 11.506106,32.912849 
	C11.110858,28.659439 11.004322,24.332634 11.012305,20.006037 
	C11.022573,14.441607 14.480798,11.035658 20.072498,11.003636 
	C23.403683,10.984560 26.735126,11.010845 30.526363,11.091619 
z"/>
<path fill="#F3FCFE" opacity="1.000000" stroke="none" 
	d="
M29.273521,28.312557 
	C29.698294,26.818552 29.767630,25.523615 30.402107,24.629889 
	C31.095104,23.653734 32.331894,22.426577 33.293411,22.458563 
	C34.241302,22.490093 35.609512,23.794630 35.976398,24.830099 
	C37.176777,28.217939 38.004997,31.737642 39.756531,35.146622 
	C40.503891,31.819048 41.072739,28.435106 42.095940,25.194632 
	C42.451576,24.068316 43.931717,23.297070 44.898273,22.363653 
	C45.517326,23.687271 46.824284,25.120777 46.633511,26.315027 
	C45.901028,30.900351 44.943180,35.491379 43.516998,39.901646 
	C43.015202,41.453381 40.947083,43.461864 39.557152,43.490902 
	C38.180683,43.519653 36.294315,41.564293 35.470558,40.029053 
	C34.407803,38.048374 34.178841,35.620312 32.501755,33.126884 
	C31.924658,35.160820 31.712416,37.411613 30.668432,39.168041 
	C29.612465,40.944633 27.733036,42.231773 26.214323,43.733318 
	C24.855814,42.249901 22.860865,40.982800 22.268192,39.239082 
	C20.938622,35.327293 20.094646,31.209173 19.502573,27.110119 
	C19.292006,25.652328 20.382341,24.006630 20.878830,22.446711 
	C22.105026,23.667913 23.866070,24.680809 24.440550,26.155836 
	C25.477713,28.818846 25.805506,31.758131 27.587103,34.637512 
	C28.113773,32.654480 28.640444,30.671450 29.273521,28.312557 
z"/>
<path fill="#EEFBFE" opacity="1.000000" stroke="none" 
	d="
M15.859184,25.356857 
	C10.571903,25.207806 13.120577,21.333120 13.403133,19.088331 
	C13.655857,17.080551 14.293256,13.563621 18.262619,15.767052 
	C17.527435,19.046436 16.726627,22.001312 15.859184,25.356857 
z"/>
</svg>